<?xml version="1.0" standalone="no"?><!DOCTYPE svg PUBLIC "-//W3C//DTD SVG 1.1//EN" "http://www.w3.org/Graphics/SVG/1.1/DTD/svg11.dtd"><svg t="1714036033327" class="icon" viewBox="0 0 1024 1024" version="1.1" xmlns="http://www.w3.org/2000/svg" p-id="4422" id="mx_n_1714036033328" width="200" height="200" xmlns:xlink="http://www.w3.org/1999/xlink"><path d="M1009.5 192.5 832 14.9c-9.8-9.8-27.2-8.3-38.9 3.4l-84.6 84.6-36.8 36.8 35.5 35.5 142 142.1 35.5 35.5 36.8-36.8 84.6-84.6C1017.8 219.7 1019.3 202.3 1009.5 192.5zM890 276.5 747.9 134.5 809 73.4l142.1 142.1L890 276.5z" p-id="4423"></path><path d="M666.4 215.9l-35.5-35.5-49.3 49.3L137.5 673.8 116.4 695l-0.4 0.4c-3.8 3.8-6.7 8.4-8.4 13.4L19.8 974.2c-3.2 9.6-7.8 25.8-1.5 32 6.3 6.2 22.4 1.7 32-1.5l265.4-87.9c4.9-1.6 9.6-4.5 13.4-8.3l0.4-0.5 21.2-21.1 444.1-444.1 49.3-49.3L808.5 358 666.4 215.9zM92.4 932 160 727.8l136.6 136.6L92.4 932zM177.7 704.7l448-448 142 142.1-448 448L177.7 704.7z" p-id="4424"></path></svg>