<?xml version="1.0" standalone="no"?><!DOCTYPE svg PUBLIC "-//W3C//DTD SVG 1.1//EN" "http://www.w3.org/Graphics/SVG/1.1/DTD/svg11.dtd"><svg t="1714110726811" class="icon" viewBox="0 0 1024 1024" version="1.1" xmlns="http://www.w3.org/2000/svg" p-id="6264" xmlns:xlink="http://www.w3.org/1999/xlink" width="200" height="200"><path d="M479.379541 0.494848C214.8992 0.494848 0.498688 214.899166 0.498688 479.379541 0.498688 743.86176 214.8992 958.268075 479.379541 958.268075 743.863723 958.268075 958.264149 743.86176 958.264149 479.381419 958.264149 214.901094 743.865685 0.494848 479.379541 0.494848L479.379541 0.494848ZM525.854379 755.71584C525.854379 768.939435 515.136939 779.661739 501.910443 779.661739L430.077611 779.661739C416.856917 779.661739 406.135637 768.940373 406.135637 755.71584L406.135637 683.884971C406.135637 670.657536 416.856917 659.937195 430.077611 659.937195L501.910443 659.937195C515.135915 659.937195 525.854379 670.656597 525.854379 683.884971L525.854379 755.71584ZM644.546731 426.124715C634.922325 439.847936 613.076651 457.33376 585.727744 478.653696L555.419477 499.56864C540.699733 510.986752 527.644331 524.279979 522.816683 539.499349 521.166848 544.684629 519.930709 553.207125 519.098624 562.411093 518.679125 567.04256 514.535765 576.491008 504.851456 576.491008L426.902699 576.491008C414.232917 576.491008 411.969365 566.566997 412.181077 561.712299 413.583445 529.896277 416.499371 501.650432 429.462016 486.443605 455.707136 455.671381 515.424939 417.369173 515.424939 417.369173 524.516779 410.508032 531.877547 403.049643 537.444608 394.921387 547.564715 380.967168 555.960661 365.642411 555.960661 348.891136 555.960661 329.637564 550.331819 312.087953 539.037355 296.202641 527.781547 280.380151 507.163307 272.452966 477.287083 272.452966 447.876608 272.452966 427.028309 282.214562 414.739371 301.729058 405.661099 316.147226 399.945216 329.403674 397.578325 343.827627 396.736427 348.932693 393.462955 359.684949 382.551211 359.684949L306.52672 359.684949C290.338901 359.684949 286.774443 349.194581 287.24224 344.137899 293.102165 280.407219 318.006784 236.863727 362.042197 208.903996 391.985152 189.65335 428.824064 179.993233 472.52224 179.993233 529.941675 179.993233 577.605376 193.680734 615.604992 221.095364 653.537024 248.472294 672.557653 289.038985 672.557653 342.827349 672.561493 375.767381 661.000363 403.544491 644.548608 426.124715L644.546731 426.124715Z" p-id="6265"></path></svg>